<?xml version="1.0" encoding="UTF-8"?>
<svg id="Lag_2" data-name="Lag 2" xmlns="http://www.w3.org/2000/svg" viewBox="0 0 687 96.72">
  <defs>
    <style>
      .cls-1, .cls-2, .cls-3 {
        fill: none;
      }

      .cls-4 {
        letter-spacing: -.02em;
      }

      .cls-5, .cls-6, .cls-7, .cls-8 {
        stroke: #999;
      }

      .cls-5, .cls-6, .cls-7, .cls-8, .cls-2, .cls-3 {
        stroke-miterlimit: 10;
      }

      .cls-9 {
        fill: #fff;
      }

      .cls-10 {
        fill: #ffe4bf;
      }

      .cls-11 {
        fill: #70b573;
      }

      .cls-12 {
        fill: #2e4a84;
      }

      .cls-13, .cls-14 {
        fill: #607ea4;
      }

      .cls-15 {
        fill: #50719b;
      }

      .cls-16, .cls-17 {
        fill: #4d4d4d;
      }

      .cls-14 {
        font-family: Impact, Impact;
        font-size: 11.86px;
      }

      .cls-6 {
        fill: #e6e6e6;
      }

      .cls-7 {
        fill: #ccc;
      }

      .cls-8 {
        fill: #f7b66e;
      }

      .cls-17 {
        font-family: MyriadPro-Regular, 'Myriad Pro';
        font-size: 16.21px;
      }

      .cls-18 {
        letter-spacing: 0em;
      }

      .cls-2 {
        stroke: #53885e;
      }

      .cls-3 {
        stroke: #4d4d4d;
      }
    </style>
  </defs>
  <g id="Lag_1-2" data-name="Lag 1">
    <path class="cls-6" d="M.71,18.6c.5-6.91,7.81-13.36,13.12-11.55,4.2,1.43,6.22,7.71,5.4,12.68-.08,.46-1.11,6.18-5.95,8.87-.86,.48-3.3,1.83-6.02,1.14C3.02,28.66,.38,23.21,.71,18.6Z"/>
    <path class="cls-6" d="M33.18,50.7c-1.81,.48-4.28,.06-5.5-1.45-2.54-3.13,2.75-7.91,2.44-16.6-.17-4.66-1.98-11.48-6.55-13.6-2.57-1.19-3.93,.07-6.49-1.33-4.1-2.25-6.39-8.64-4.52-10.93,2.35-2.89,11.65,.37,17.49,4.23,2.27,1.5,6.18,4.09,8.8,8.9,6.32,11.58,1.29,28.92-5.66,30.77Z"/>
    <path class="cls-6" d="M83.81,71.12c-5.42,9.25-14.32,12.68-16.57,13.26-1.17,.31-2.09,.39-2.9,.49-7.74,.95-9.98-1.62-17.71-2.38-7.78-.77-10.71,1.31-17.98-1.31-.93-.34-1.49-.54-2.18-.89-7.64-3.84-13.9-16.47-9.65-26.72,4.59-11.07,19.64-14.98,22.08-12.13,2.07,2.42-4.01,10.25-1.04,13.32,.84,.87,2.18,1.13,3.17,1,2.35-.32,3.06-2.92,5.9-5.73,0,0,2.11-2.08,5.49-3.73,4.88-2.38,8.42-.26,17.4,.79,2.89,.34,5.12,.42,6.88,.41,3.07-.02,4.8,.99,6.79,.09,1.95-.88,2.18-2.31,2.81-2.19,1.91,.37,4.22,14.27-2.49,25.71Z"/>
    <path class="cls-5" d="M1.56,24.23c.89-.43,1.6,.84,4.22,2.21,.36,.2,.66,.34,.86,.43,1.15,.51,2.57,1.15,3.78,1.02,.12-.01,.4-.05,.68,.09,.33,.17,.5,.51,.59,.78,.28,0,.67,0,.68,.09,.04,.25-2.71,1.21-5.75,1.3-1.02,.03-4.03,.02-5.43-1.44-.06-.07-.12-.13-.18-.22-.93-1.28-.5-3.76,.55-4.27Z"/>
    <path class="cls-8" d="M8.32,39.96c-1.85,2.47-2.9,2.67-3.45,2.68-1.99,.04-4.27-2.34-4-4.05,.01-.08,.03-.13,.03-.15,.69-2.76-1.27-9.12,.14-10.13,.9-.65,2.25,1.52,5.44,1.76,3.07,.23,4.35-1.58,5.33-.84,1.6,1.21-.66,6.97-3.49,10.74Z"/>
    <path class="cls-7" d="M79.99,56.42c-1.07-1.85-6.62,1.08-17.51-1.01-.58-.11-.48-.1-.89-.18-3.27-.61-13.51-2.08-17.26,3.88-1.85,2.94-2.06,7.58,.2,10.04,2.32,2.52,6.54,1.86,15.04,.5,6.5-1.04,10.22-1.68,14.13-4.52,3.55-2.57,7.3-6.99,6.29-8.71Z"/>
    <circle class="cls-5" cx="8.7" cy="20.04" r="1.11" transform="translate(-12.68 24.54) rotate(-78.42)"/>
    <g>
      <path class="cls-9" d="M176.47,74.86c-28.14,0-51.03-11.73-51.03-26.14s22.89-26.14,51.03-26.14,51.03,11.73,51.03,26.14-22.89,26.14-51.03,26.14Z"/>
      <path class="cls-16" d="M176.47,23.09c27.86,0,50.53,11.5,50.53,25.64s-22.67,25.64-50.53,25.64-50.53-11.5-50.53-25.64,22.67-25.64,50.53-25.64m0-1c-28.46,0-51.53,11.93-51.53,26.64s23.07,26.64,51.53,26.64,51.53-11.93,51.53-26.64-23.07-26.64-51.53-26.64h0Z"/>
    </g>
    <text class="cls-17" transform="translate(146.73 43.1) scale(1.9 1)"><tspan x="0" y="0">E</tspan><tspan class="cls-4" x="7.98" y="0">C</tspan><tspan x="17.04" y="0">O</tspan><tspan x="0" y="19.46">CE</tspan><tspan class="cls-18" x="17.38" y="19.46">R</tspan><tspan x="26.25" y="19.46">T</tspan></text>
    <line class="cls-3" x1="209.99" y1="48.73" x2="227.28" y2="48.73"/>
    <path class="cls-13" d="M335.02,50.1c.36,7.38-.93,12.71-2.29,18.31-2.16,8.89-4.34,11.25-5.34,12.21-2.3,2.19-4.24,2.53-12.21,4.58-17.44,4.48-18.82,5.58-22.89,4.58-1.31-.32-4.68-2.25-11.44-6.1-6.87-3.92-10.38-5.81-11.44-6.87-2.22-2.2-4.28-7.06-8.39-16.78-2.47-5.83-2.87-7.29-3.05-9.16-.42-4.34,.67-7.58,2.29-12.21,2.32-6.64,3.99-11.42,8.39-15.26,1.7-1.48,2.41-1.32,11.44-5.34,14.43-6.43,16.18-7.05,19.07-6.87,1.93,.12,5.89,1.86,13.73,5.34,7.04,3.12,10.56,4.68,11.44,5.34,9.65,7.21,10.36,21.72,10.68,28.23Z"/>
    <path class="cls-9" d="M330.39,50.46c.32,6.52-.82,11.24-2.02,16.19-1.91,7.86-3.84,9.95-4.72,10.79-2.03,1.94-3.75,2.24-10.79,4.05-15.42,3.96-16.64,4.94-20.24,4.05-1.15-.29-4.14-1.99-10.12-5.4-6.07-3.46-9.17-5.14-10.12-6.07-1.97-1.95-3.78-6.24-7.42-14.84-2.18-5.16-2.54-6.44-2.7-8.09-.37-3.83,.59-6.7,2.02-10.79,2.05-5.87,3.53-10.1,7.42-13.49,1.5-1.31,2.13-1.16,10.12-4.72,12.76-5.68,14.31-6.23,16.86-6.07,1.7,.11,5.21,1.65,12.14,4.72,6.23,2.76,9.34,4.14,10.12,4.72,8.53,6.37,9.16,19.2,9.44,24.96Z"/>
    <path class="cls-13" d="M293.3,57.68c.78,1.69,1.08,2.63,2.04,3.53,1.18,1.11,1.68,.97,1.93,1.71,.45,1.31-.85,3.51-2.16,3.6-1.54,.11-2.88-2.69-4.78-6.66-.83-1.72-1.94-4.05-2.81-7.32-.82-3.04-.52-3.5-1.44-5.76-.89-2.16-1.81-3.32-1.33-3.94,.44-.57,1.92-.48,2.93,.19,1.36,.89,1.06,2.24,2.55,6.06,.75,1.92,.85,1.63,1.48,3.38,.98,2.71,.69,3.23,1.59,5.2Z"/>
    <path class="cls-13" d="M303.44,53.23c1.79-2.06,1.78-2.57,3.72-4.97,.92-1.15,1.55-1.92,2.57-2.89,1.66-1.58,2.16-1.58,3.12-2.74,1.4-1.69,2.22-3.94,1.75-4.31-.32-.25-1.01,.55-3.53,2.04-2.22,1.31-2.48,1.17-3.53,2.04-1.17,.97-1.06,1.33-2.57,2.89-1.67,1.74-1.9,1.39-3.12,2.74-1.47,1.62-1.34,2.32-3.02,4.56-1.2,1.6-1.39,1.42-2.57,2.89-1.33,1.66-3.38,4.35-3.2,7.5,.04,.67,.13,1.97,1.07,2.68,.11,.08,.86,.65,1.67,.45,1.23-.31,1.76-2.19,2.31-4.16,.48-1.73,.26-1.89,.75-2.78,.45-.81,.87-1.1,1.86-2.49,.45-.62,.78-1.16,1.01-1.52,0,0,.56-.61,1.71-1.93Z"/>
    <path class="cls-12" d="M300.51,76.35c-.19,.19-.38,.38-.58,.58"/>
    <text class="cls-14" transform="translate(275.18 44.76) rotate(-70.81)"><tspan x="0" y="0">A</tspan></text>
    <text class="cls-14" transform="translate(277 39.31) rotate(-63.91)"><tspan x="0" y="0"> </tspan></text>
    <text class="cls-14" transform="translate(277.6 37.92) rotate(-50.75)"><tspan x="0" y="0">L</tspan></text>
    <text class="cls-14" transform="translate(280.17 34.92) rotate(-39.03)"><tspan x="0" y="0"> </tspan></text>
    <text class="cls-14" transform="translate(281.45 33.87) rotate(-30.24)"><tspan x="0" y="0">L</tspan></text>
    <text class="cls-14" transform="translate(285.23 31.87) rotate(-24.62)"><tspan x="0" y="0"> </tspan></text>
    <text class="cls-14" transform="translate(287.03 30.98) rotate(-22.1)"><tspan x="0" y="0">E</tspan></text>
    <text class="cls-14" transform="translate(291.32 29.16) rotate(-15.23)"><tspan x="0" y="0"> </tspan></text>
    <text class="cls-14" transform="translate(292.71 28.39) rotate(-1.05)"><tspan x="0" y="0">R</tspan></text>
    <text class="cls-14" transform="translate(298.45 28.41) rotate(14.92)"><tspan x="0" y="0"> </tspan></text>
    <text class="cls-14" transform="translate(300.12 28.6) rotate(26.88)"><tspan x="0" y="0">G</tspan></text>
    <text class="cls-14" transform="translate(305.59 31.57) rotate(34.84)"><tspan x="0" y="0"> </tspan></text>
    <text class="cls-14" transform="translate(307.16 32.62) rotate(39)"><tspan x="0" y="0">Y</tspan></text>
    <text class="cls-14" transform="translate(311.29 36.07) rotate(45.99)"><tspan x="0" y="0"> </tspan></text>
    <text class="cls-14" transform="translate(312.65 37.5) rotate(49.38)"><tspan x="0" y="0"> </tspan></text>
    <text class="cls-14" transform="translate(313.92 39.02) rotate(52.31)"><tspan x="0" y="0"> </tspan></text>
    <text class="cls-14" transform="translate(315.1 40.59) rotate(55.13)"><tspan x="0" y="0"> </tspan></text>
    <text class="cls-14" transform="translate(316.17 42.18) rotate(59.33)"><tspan x="0" y="0"> </tspan></text>
    <text class="cls-14" transform="translate(317.29 43.31) rotate(73.12)"><tspan x="0" y="0">C</tspan></text>
    <text class="cls-14" transform="translate(318.78 48.8) rotate(89.94)"><tspan x="0" y="0"> </tspan></text>
    <text class="cls-14" transform="translate(319.21 50.21) rotate(104.38)"><tspan x="0" y="0">E</tspan></text>
    <text class="cls-14" transform="translate(317.92 54.5) rotate(114.61)"><tspan x="0" y="0"> </tspan></text>
    <text class="cls-14" transform="translate(317.04 56.26) rotate(117.51)"><tspan x="0" y="0">R</tspan></text>
    <text class="cls-14" transform="translate(314.16 61.88) rotate(118.84)"><tspan x="0" y="0"> </tspan></text>
    <text class="cls-14" transform="translate(313.61 63.46) rotate(130.33)"><tspan x="0" y="0">T</tspan></text>
    <text class="cls-14" transform="translate(310.39 67.05) rotate(143.7)"><tspan x="0" y="0"> </tspan></text>
    <text class="cls-14" transform="translate(309.08 68.08) rotate(152.69)"><tspan x="0" y="0">I</tspan></text>
    <text class="cls-14" transform="translate(306.19 69.41) rotate(158.11)"><tspan x="0" y="0"> </tspan></text>
    <text class="cls-14" transform="translate(304.44 70.09) rotate(162.71)"><tspan x="0" y="0">F</tspan></text>
    <text class="cls-14" transform="translate(300.12 71.54) rotate(167.59)"><tspan x="0" y="0"> </tspan></text>
    <text class="cls-14" transform="translate(298.42 71.99) rotate(174.7)"><tspan x="0" y="0">I</tspan></text>
    <text class="cls-14" transform="translate(295.38 72.25) rotate(-177.33)"><tspan x="0" y="0"> </tspan></text>
    <text class="cls-14" transform="translate(293.69 72.29) rotate(-167.63)"><tspan x="0" y="0">E</tspan></text>
    <text class="cls-14" transform="translate(289.16 71.11) rotate(-161.87)"><tspan x="0" y="0"> </tspan></text>
    <text class="cls-14" transform="translate(287.34 70.75) rotate(-154.96)"><tspan x="0" y="0">D</tspan></text>
    <text class="cls-14" transform="translate(281.91 68.07) rotate(-144.07)"><tspan x="0" y="0"> </tspan></text>
    <text class="cls-14" transform="translate(280.48 67.02) rotate(-138.19)"><tspan x="0" y="0"> </tspan></text>
    <text class="cls-14" transform="translate(279.18 65.71) rotate(-132.69)"><tspan x="0" y="0"> </tspan></text>
    <text class="cls-14" transform="translate(277.95 64.4) rotate(-127.08)"><tspan x="0" y="0"> </tspan></text>
    <text class="cls-14" transform="translate(276.76 62.98) rotate(-121.02)"><tspan x="0" y="0"> </tspan></text>
    <text class="cls-14" transform="translate(275.78 61.36) rotate(-116.14)"><tspan x="0" y="0"> </tspan></text>
    <text class="cls-14" transform="translate(274.93 59.67) rotate(-111.12)"><tspan x="0" y="0"> </tspan></text>
    <text class="cls-14" transform="translate(274.26 57.99) rotate(-105.07)"><tspan x="0" y="0"> </tspan></text>
    <circle class="cls-15" cx="271.69" cy="57.73" r="1.91"/>
    <path class="cls-15" d="M456.34,61.5c1.32,1.28,1.84,2.16,3.88,3.9,2.53,2.16,3.48,2.3,7.18,4.81,3.21,2.18,5.41,3.69,7.47,6.31,.68,.87,3.59,4.55,2.68,5.7-.85,1.08-4.42-.87-9.88-2.72-1.33-.45-2.57-.83-3.78-1.16-4.04-1.1-7.14-1.62-10.89-2.18-11.57-1.7-17.39-2.55-19.17-2.45-2.59,.15-5.19-.04-7.79-.02-2.53,.02-3.55,.04-4.79-.61-1.17-.62-2.09-1.72-3.88-3.9-1.43-1.75-1.47-2.02-2.09-2.7-2.4-2.66-5.98-3.18-6.88-3.31-5.43-.79-6.25,3.16-14.69,4.46-3.49,.54-4.95,.11-7.49,1.48-3.09,1.67-4.99,4.49-5.4,4.18-.27-.21,.71-1.34,.91-3.29,.16-1.66-.43-2.07-.89-4.5-.4-2.12-.85-4.46,.32-6.29,.52-.81,1.25-1.24,2.7-2.09,3.32-1.94,4.55-1.33,5.7-2.68,1.43-1.69,1.1-4.54,.32-6.29-.74-1.65-1.99-2.54-3.88-3.9-3.31-2.37-4.63-1.93-5.38-3.61-.14-.31-.06-.24-.89-4.5-.17-.89-.26-1.33-.3-1.5-.6-2.77-2.12-4.88-2.68-5.7-1.17-1.68,1.59,2.01-4.77-8.4-6.37-10.42-7.76-11.86-7.16-12.6,1.23-1.52,8.85,2.17,13.47,5.13,3.59,2.3,4.52,3.61,8.97,6.01,1.81,.98,3.5,1.76,6.88,3.31,5.34,2.46,6.62,2.8,8.68,4.52,2.24,1.87,3.88,3.9,3.88,3.9,1.37,1.7,1.24,1.97,2.09,2.7,2.06,1.76,4.75,1.79,6.59,1.81,3.18,.04,5.49-.96,5.99-1.18,2.02-.9,2.55-1.74,5.4-4.18,4.44-3.79,4.72-3.1,8.1-6.27,2.53-2.37,3.8-3.56,5.11-5.68,1.19-1.92,1.85-3.71,2.41-3.59,.27,.06,.41,.53,.59,3,.3,4.09,.45,6.13-.02,7.79-.55,1.95-1.33,2.81-.91,3.29,.56,.63,2.2-.56,4.5-.89,4.26-.61,8.55,2.03,8.38,3.02-.11,.65-2.1,.32-5.99,1.18-.87,.19-4.54,1.04-8.7,3.27-3.45,1.85-5.34,3.65-8.1,6.27-1.18,1.12-2.09,2.09-2.41,3.59-.46,2.17,.63,4.06,.89,4.5,1.72,2.97,4.87,3.09,11.97,5.42,7.01,2.3,10.58,3.52,13.76,6.63Z"/>
    <path class="cls-10" d="M409.27,55.43c0-.13,.04-.74,.72-1.43,.6-.62,1.26-.86,3.58-1.43,2.31-.57,2.25-.48,2.86-.72,1.76-.69,1.76-1.27,2.86-1.43,1.17-.17,2.66,.25,3.58,1.43,.51,.66,1.26,2.09,.72,2.86-.75,1.06-2.9-.55-7.16,0-2.63,.34-3.95,.51-5.01,1.43-.34,.29-.92,.87-1.43,.72-.47-.15-.73-.86-.72-1.43Z"/>
    <path class="cls-10" d="M427.38,34.35c.37-.24,.8-.05,1.53,.13,1.97,.49,2.17-.03,3.84,.33,1.11,.23,2.73,.57,3.71,1.86,.74,.98,.45,1.64,1.34,2.43,.73,.65,1.16,.4,2.24,.96,.19,.1,2.09,1.19,2.81,3.33,.09,.28,.69,2.07-.26,3.07-.79,.83-2.16,.61-2.37,.57-1.61-.28-1.68-1.54-3.64-2.63-.45-.25-1.56-.53-3.77-1.09-3.13-.79-3.28-.71-3.77-1.09-1.29-1-1.55-2.58-1.91-4.8-.19-1.17-.42-2.63,.26-3.07Z"/>
    <path class="cls-2" d="M554.11,14.08c.02-.08,.36-1.86-.38-3.01-1.22-1.91-4.97-1.42-7.16-1.13-.96,.13-4.62,.66-9.8,3.39-3.95,2.08-6.53,4.26-8.29,6.03-3.19,3.21-3.8,5.23-3.77,6.78,.01,.49,.05,1.51,.75,2.26,.74,.79,1.92,.94,4.15,.75,3.97-.34,6.89-1.41,7.16-1.51,2.82-1.05,4.75-2.18,6.78-3.39,0,0,5.75-3.41,9.42-7.91,.32-.39,.9-1.15,1.13-2.26Z"/>
    <path class="cls-2" d="M554.11,23.88c-.27,.37-.18,.56-.38,2.64-.19,1.97-.4,4.12-.75,4.15-.54,.04-.98-4.89-1.88-4.9-.6,0-1.11,2.17-1.13,2.26-.4,1.75,0,2.84-.38,3.01-.62,.27-1.87-2.49-3.01-2.26-1.14,.23-1.09,3.21-2.26,3.39-.86,.13-1.52-1.36-2.26-1.13-.51,.16-.64,1-.75,1.51-.65,2.93-3.09,5.5-3.77,5.28-.87-.28,.48-5.39-.38-5.65-.52-.16-1.64,1.54-2.26,3.01-.87,2.06-.82,3.76-1.13,3.77-.45,.01-.38-3.49-1.51-3.77-1.22-.3-2.78,3.45-6.03,4.52-.23,.07-1.04,.33-1.2,.08-.17-.27,.64-.87,1.2-1.96,.44-.88,.94-2.49,.38-3.01-.75-.7-3.44,.58-5.28,2.26-1.75,1.61-2.27,3.16-2.64,3.01-.42-.17-.24-2.48,.75-4.52,.67-1.38,1.35-1.89,1.13-2.26-.49-.81-4.34,.68-4.52,.75-2.14,.84-3.21,1.73-3.39,1.51-.21-.25,1.16-1.46,3.39-4.52,.65-.9,1.88-2.64,1.88-2.64h0s-1.91,.02-3.39,.38c-2.14,.51-3.25,1.68-3.39,1.51-.17-.21,1.53-1.92,3.01-3.39,2.11-2.1,2.8-2.64,2.64-3.01-.39-.91-5.09,.56-5.28,0-.14-.43,2.41-1.94,5.28-3.01,3.04-1.14,5.17-1.32,5.28-2.26,.07-.64-.91-.83-1.51-2.26-.56-1.32-.44-2.86,0-3.01,.38-.13,.65,.91,1.88,1.51,.4,.19,.58,.18,2.64,.38,2.08,.2,2.4,.26,2.64,0,.41-.44-.03-1.22-.38-2.64-.51-2.1-.6-4.68,0-4.9,.56-.21,1.28,1.82,3.77,3.01,.66,.32,1.47,.71,1.88,.38,.61-.49-.22-2.1,.38-4.52,.07-.31,.2-.75,.38-.75,.47,0,.38,3.23,1.88,3.77,.12,.04,.49,.17,.75,0,1.04-.68-.96-4.97-.38-5.28,.58-.3,2.65,3.8,4.15,3.39,.74-.2,1.02-1.42,1.13-1.88,.55-2.34-.94-4.06-.38-4.52,.5-.41,2.04,.65,2.64,1.13,.87,.7,1.76,1.43,2.26,2.64,.11,.26,.21,.58,.42,.61,.37,.04,.7-.93,1.09-1.74,.93-1.91,2.54-3.61,3.01-3.39,.33,.15,0,1.19,0,4.15,0,1.31,.06,1.43,.17,1.51,1.28,.97,8.09-6.06,8.5-5.66,.26,.25-2.46,3.01-1.88,3.77,.36,.47,1.86-.02,2.64-.38,1.68-.76,2.5-2,2.64-1.88,.19,.15-1.06,2.71-2.64,5.28-.25,.4-.55,.88-.38,1.13,.3,.43,1.71-.33,3.77-.75,2.38-.49,4.47-.3,4.52,0,.06,.39-3.48,.55-4.9,3.01-.3,.52-.63,1.36-.34,1.63,.67,.63,4.13-2.4,4.49-2.01,.21,.23-.6,1.58-1.88,2.64-2.48,2.04-5.18,1.71-5.28,2.64-.07,.7,1.38,1.54,2.64,2.26,1.25,.72,1.9,.83,1.88,1.13-.02,.56-2.21,1.06-4.15,1.13-1.8,.06-2.87-.34-3.01,0-.2,.48,1.68,1.75,1.88,1.88,1.13,.76,1.92,.96,1.88,1.13-.09,.45-5.36-1.18-6.78,.75Z"/>
    <path class="cls-2" d="M537.72,75.32c.07,.02,.23,.07,.38,0,.72-.33,.23-2.8,0-4.15h0c-.12-.66-.39-2.17-.57-3.96-.07-.67-.18-2.05-.19-3.96-.02-4.19-.03-7.13,1.13-10.55,.91-2.69,2.07-4.71,2.07-4.71,.33-.58,1.04-1.75,1.89-3.51,.12-.26,.39-.78,.56-1.2,.39-1,.64-2.43,1.13-5.28,0,0,.38-2.17,.38-3.77,0-.74,0-.75,0-.75-.04-.59-.15-.84,0-1.13,.11-.22,.29-.32,.38-.38,1.02-.67,1.17-3.02,1.51-3.01,.26,0,.38,1.13,.38,1.13,.39,3.88,0,6.78,0,6.78-.84,6.16-.58,6.13-1.13,7.54-.71,1.8-.9,1.25-2.26,4.15-1.35,2.88-1.96,5.12-2.26,6.41-.19,.82-.31,1.49-.38,1.88-.21,1.28-.56,3.45-.38,6.03,.02,.34,.27,1.86,.75,4.9,.27,1.7,.33,1.98,.38,2.64,.09,1.14,.06,2.16,0,4.15-.06,2.01-.14,3.18,.38,3.39,.03,.01,.16,.06,.38,0,1.17-.33,1.17-2.71,2.64-6.03,.51-1.16,.98-2.23,1.88-3.39,.27-.35,.63-.77,1.13-1.51,.61-.9,.85-1.42,1.13-1.88,.75-1.24,1.53-1.65,2.64-2.64,1.72-1.54,1.29-1.84,3.39-4.15,2.34-2.58,4.06-3.49,3.77-4.15-.22-.49-1.38-.41-1.88-.38-2.17,.14-3.69,1.47-4.15,1.88-3.31,3.06-2.92,7.56-3.77,7.54-.71-.02-1.47-3.13-1.13-6.03,.14-1.15,.37-3.12,1.88-4.9,1.56-1.83,3.59-2.39,4.52-2.64,2.92-.77,3.71,.41,6.78-.38,1.58-.4,2.72-1.06,4.15-1.88,2.86-1.64,4.31-3.22,4.52-3.01,.26,.25-2.17,2.41-3.77,6.41-.53,1.33-.89,3.41-1.13,4.52-.47,2.16-.35,2.1-.57,2.83-.14,.47-1.26,4.1-4.15,5.65-2.76,1.48-4.17-.53-6.59,.94-.63,.38-1.69,2.14-3.77,5.65-1.49,2.52-1.91,3.36-2.26,4.15-.78,1.75-1.21,3.17-1.51,4.15-.3,1.01-.79,2.66-1.13,4.9-.26,1.71-.44,2.9-.38,4.52,.03,.88-.01,1.76,0,2.64,.02,1.27,.05,1.99-.38,2.26-.23,.15-.43,.06-1.13,0-.63-.05-1.26,0-1.88,0h-3.39c-.25,0-.5-.01-.75,0-.27,.01-.3,.03-.38,0-.3-.13-.34-.66-.38-1.13-.02-.32-.03-.47,0-.75,.06-.52,.02-2.47-.75-6.03-.69-3.19-1.54-5.76-2.83-9.61-.13-.38-.25-.75-.38-1.13-1.12-3.35-1.12-3.36-1.13-3.39-.82-2.45-2.56-5.22-3.77-7.16-1.45-2.32-2.18-3.48-3.39-4.9-1.66-1.94-2.56-2.44-4.71-5.09-.78-.96-.96-1.26-1.7-2.07-2.03-2.24-3.35-2.92-3.2-3.2,.23-.43,3.43,.61,6.41,2.26,.09,.05,.16,.09,.17,.1,1.86,1.06,3.1,2.14,5.29,4.24,1.96,1.88,2.94,2.82,3.39,3.39,.57,.74,.57,.85,2.26,3.39,1.77,2.67,1.78,2.55,2.26,3.39,.61,1.07,1.51,2.61,2.07,4.71,.75,2.77,.51,4.97,1.51,5.28Z"/>
    <circle class="cls-11" cx="646.55" cy="49.66" r="40.46"/>
    <path class="cls-9" d="M630.83,42.7c-.32-.06-.69,.78-1.55,2.58-.83,1.73-1.74,3.43-2.58,5.15s-1.72,3.44-2.58,5.15c-.69,1.37-1.55,2.68-2.06,4.12-.57,1.6-.8,2.97-1.55,3.09-.46,.08-.88-.37-1.03-.52-2.57-2.57-7.37-1.83-7.73-3.61-.09-.42,.16-.58,1.03-2.06,.73-1.23,.58-1.17,2.06-4.12,2.25-4.49,2.85-5.16,5.15-9.79,1.14-2.29,1.24-2.61,2.06-4.12,1.27-2.33,1.69-2.75,2.58-4.64,.42-.89,1-2.23,1.55-3.61,.88-2.21,1.11-3.12,2.06-3.61,.23-.12,.24-.08,2.06-.52,0,0,.47-.11,2.06-.52,4.04-1.02,4.84-1.57,5.67-1.03,.36,.23,.24,.36,1.03,1.55,.59,.9,.91,1.19,2.06,2.58,2.14,2.57,3.22,3.85,3.61,4.64,.32,.64,.55,.94,1.03,1.55,.38,.49,.46,.51,.52,.52,.53,.07,.93-1.08,2.57-3.08,0,0,0-.01,0-.01,1.53-1.87,2.63-3.27,3.45-4.33,1.21-1.57,1.54-3.26,2.73-3.4,.31-.04,.35,.06,2.06,.52,.77,.21,1.4,.38,2.06,.52,.78,.16,1.74,.28,3.61,.52,1.25,.15,1.62,.19,2.06,.52,.37,.28,.6,.62,1.03,1.55,.47,1.01,.71,1.52,1.03,2.58,.24,.8,.85,2.08,2.06,4.64,.5,1.06,1.02,2.1,2.06,4.12,2.58,4.98,2.88,5.28,4.64,8.76,1.79,3.54,1.6,3.48,2.58,5.15,.89,1.53,1.36,3.36,2.58,4.64,.19,.2,.61,.62,.52,1.03-.15,.65-1.42,.76-2.58,1.03-3.72,.88-4.6,3.07-6.18,2.58-.98-.3-1.36-1.36-2.06-3.09-1.55-3.85-3.56-7.5-5.15-11.34-2.17-5.23-2.69-6.27-3.09-6.18-.37,.07-.53,1.08-.52,5.15,.02,5.55,.02,8.33,.52,12.37,.37,3.06,1.03,7.01,1.03,9.28v4.64c0,.48,0,.49,0,.52-.23,.71-3.9,.18-5.67,0-1.21-.12-.5,.01-6.7,0-4.76-.01-6.76-.01-10.77,0-1.62,0-3.71,0-5.72,0h-4.12c-.77,.02-.89,.08-1.03,0-.53-.31-.15-1.87,0-2.58,.37-1.69,.26-3.45,.52-5.15,.09-.58,.4-3.48,1.03-9.28,.31-2.82,.42-4.02,.52-5.67,0,0,.11-2.01,0-5.15-.12-3.28-.35-3.58-.52-3.61Z"/>
    <rect class="cls-1" x="635.72" y="24.92" width="1.03" height="12.88" transform="translate(25.5 212.41) rotate(-19.33)"/>
  </g>
</svg>