<?xml version="1.0" encoding="UTF-8"?>
<svg id="Lag_2" data-name="Lag 2" xmlns="http://www.w3.org/2000/svg" viewBox="0 0 891.39 582.62">
  <defs>
    <style>
      .cls-1, .cls-2, .cls-3 {
        font-family: BrownCasalovaDemo, 'Brown CasalovaDemo';
      }

      .cls-4 {
        font-size: 8px;
      }

      .cls-4, .cls-5 {
        stroke: #666;
      }

      .cls-6 {
        fill: #f3f4ce;
      }

      .cls-7 {
        fill: #009245;
      }

      .cls-8 {
        fill: #ffdd68;
      }

      .cls-9 {
        fill: #ffdf9f;
      }

      .cls-10 {
        fill: #fdd0b5;
      }

      .cls-11 {
        fill: #ffffe3;
      }

      .cls-12 {
        fill: #ffedaa;
      }

      .cls-13 {
        fill: #fcbd7d;
      }

      .cls-14 {
        fill: #fbb062;
      }

      .cls-15 {
        fill: #8c6239;
      }

      .cls-16 {
        fill: #b6e798;
      }

      .cls-17 {
        fill: #ba89a9;
      }

      .cls-18 {
        fill: #8cc63f;
      }

      .cls-19 {
        fill: #d05894;
      }

      .cls-20 {
        fill: #c0db87;
      }

      .cls-21 {
        fill: #ac669e;
      }

      .cls-22 {
        fill: #d4ffb9;
      }

      .cls-23 {
        fill: #da7baa;
      }

      .cls-24 {
        fill: #d8e9b5;
      }

      .cls-25 {
        fill: #c8a2bb;
      }

      .cls-26 {
        fill: #42210b;
      }

      .cls-27 {
        fill: #70ae61;
      }

      .cls-28 {
        fill: #39b54a;
      }

      .cls-29 {
        fill: #754c24;
      }

      .cls-30 {
        fill: #755e3d;
      }

      .cls-31 {
        font-family: MyriadPro-Regular, 'Myriad Pro';
      }

      .cls-2 {
        letter-spacing: -.05em;
      }

      .cls-32 {
        fill: #c4d2c1;
      }

      .cls-32, .cls-33, .cls-34, .cls-35, .cls-36, .cls-37, .cls-38, .cls-39, .cls-5 {
        stroke-miterlimit: 10;
      }

      .cls-32, .cls-33, .cls-37 {
        stroke: #999;
      }

      .cls-33 {
        fill: #abcf80;
      }

      .cls-34 {
        fill: #197d00;
      }

      .cls-34, .cls-35 {
        stroke: #197d00;
      }

      .cls-35, .cls-36, .cls-37, .cls-38, .cls-39 {
        fill: none;
      }

      .cls-36 {
        stroke: #000;
      }

      .cls-38 {
        stroke: #5f4100;
      }

      .cls-39 {
        stroke: #4d4d4d;
      }

      .cls-40 {
        font-size: 14px;
      }

      .cls-40, .cls-5 {
        fill: #4d4d4d;
        font-family: Copperplate-Bold, Copperplate;
      }

      .cls-5 {
        font-size: 12px;
      }

      .cls-3 {
        letter-spacing: -.03em;
      }
    </style>
  </defs>
  <g id="Lag_1-2" data-name="Lag 1">
    <path class="cls-33" d="M15.95,69.42c-1.41-3.07-2.94-7.79-1.36-12.5,.53-1.6,1.21-2.57,2.73-4.86,5.94-8.98,6.01-9.96,7.51-11.81,1.44-1.78,5.55-6.03,19.11-7.64,20.72-2.46,55.4,2.19,60.74,20.14,.83,2.79,.75,5.22,.68,6.25-2.96,3.47-5.91,6.94-8.87,10.42"/>
    <path class="cls-24" d="M801.52,249.23c3.17-3.1,6.38-7.19,6.38-7.19,1.65-2.1,2.68-3.6,2.68-3.6,1.19-1.73,1.47-2.47,2.5-4.34,1.08-1.96,2.53-4.29,3.78-6.22,2.98-4.61,7.2-11.13,6.43-11.83-.5-.46-2.76,1.98-9.34,6.66-2.11,1.5-3.71,2.64-5.74,3.82-4.91,2.86-9.03,4.04-10.05,4.37-11.87,3.81-31.77,29.59-29.32,32.3,.56,.62,1.77-.58,8.38-3.49,14.07-6.2,19.05-5.34,24.29-10.48Z"/>
    <path class="cls-20" d="M11.47,270.14c-.77-1.87-2-5-.89-8.82,1.7-5.85,7.91-9.95,8.9-9.5,.62,.29-1.47,2.09-.89,4.75,.71,3.22,4.83,5.36,8.9,7.46,4.66,2.41,6.03,2.14,8.01,4.07,.38,.37,3.13,3.14,2.67,6.78-.55,4.36-5.31,8.39-10.23,8.82-8.19,.72-14.47-8.72-16.46-13.57Z"/>
    <path class="cls-27" d="M32.82,269.46c-.75-4.82,.07-8.52,.89-12.21,.25-1.12,1.13-4.9,3.56-9.5,1.51-2.87,2.55-4.83,3.56-4.75,2.4,.19-.78,11.42,7.12,16.96,1.39,.98,3.26,1.87,5.34,4.07,1.38,1.46,3.24,3.43,3.56,6.11,.38,3.16-1.4,7.33-6.23,9.5-3.89,1.75-9.23,1.96-12.9,0-3.62-1.93-4.12-5.25-4.89-10.18Z"/>
    <path class="cls-10" d="M475.89,390.5c11.37,5.91,3.94,103.52-49,114-40.36,7.99-89.43-38.2-83-67,5.3-23.73,49.79-42.49,70-31,5.7,3.24,6.14,7,12,9,20.34,6.94,42.23-29.04,50-25Z"/>
    <path class="cls-39" d="M593.89,116.5c4.83-20.41,13.75-31.05,21-37,13.34-10.94,25.77-9.86,52-21,14.17-6.02,25.06-12.5,32-17"/>
    <path class="cls-39" d="M595.89,181.5c19.1-18.83,35.38-23.45,47-24,24.13-1.15,36.6,14.8,66,15,16.46,.11,30.01-4.76,39-9"/>
    <path class="cls-39" d="M605.89,284.5c10.17,5.48,39.72,19.7,79,15,39.09-4.68,64.38-25.28,73-33"/>
    <path class="cls-39" d="M582.89,400.5c20.03-19.54,36.14-23.17,47-23,23.03,.37,33.04,18.01,58,20,19.6,1.56,36.3-7.49,47-15"/>
    <path class="cls-36" d="M581.89,496.5c9.35,6.98,24.63,16.04,41,13,24.09-4.48,29.39-31.21,55-40,10.73-3.68,28.42-5.38,56,9"/>
    <path class="cls-39" d="M250.89,133.5c-7.67-10.12-24.55-29.48-53-42-37.71-16.6-71.94-10.68-84-8"/>
    <path class="cls-39" d="M240.89,195.5c-39.95,20.05-59.51,16.81-70,10-8.17-5.31-10.37-12.5-21-18-15.68-8.11-33.68-4.25-46,0"/>
    <path class="cls-39" d="M245.89,284.5c-7.73-.79-19.73-1.34-34,1-17.1,2.81-19.63,6.85-38,11-4.25,.96-7.87,1.43-11.21,1.57-13.52,.59-24.13,0-41.79-2.57-14.66-2.14-27.47-4.21-38-6"/>
    <path class="cls-39" d="M237.89,400.5c-8.1-5.75-20.84-12.92-37-14-22.15-1.48-33.02,9.67-58,12-10.85,1.01-26.83,.58-47-7"/>
    <path class="cls-39" d="M259.89,500.5c-27.79-14.12-47.26-13.39-60-10-20.63,5.49-28.07,19.14-49,22-18.6,2.55-35.08-5.18-46-12"/>
    <path class="cls-16" d="M15.95,69.42c-.3-2.2-.54-6.63,2.05-10.42,2.21-3.23,5.52-4.59,9.55-6.25,0,0,3.47-1.43,6.82-2.08,11.05-2.16,62.17-1.64,64.15,12.5,.17,1.21,.09,3.31-2.05,6.25"/>
    <path class="cls-37" d="M15.95,69.42c3.64,.69,7.28,1.39,10.92,2.08,2.85-.44,7.11-1.01,12.28-1.39,10.69-.78,18.58-.22,22.52,0,7.96,.44,19.51,.62,34.81-.69"/>
    <ellipse class="cls-8" cx="53.13" cy="163.4" rx="4.98" ry="5.09"/>
    <path class="cls-23" d="M43.47,152.33c-5.65-8.27-6.52-19.98-4.1-20.94,2.29-.91,8.09,7.5,10.54,15.55,1.21,4,2.39,10.5,.59,11.37-1.62,.78-5.16-3.25-7.02-5.98Z"/>
    <path class="cls-19" d="M48.15,136.18c.3-2.1,1.41-9.97,3.8-10.17,2.57-.21,6.34,8.43,6.15,16.75-.18,7.44-3.55,15.75-6.15,15.55-3.04-.23-5.22-12.15-3.8-22.14Z"/>
    <path class="cls-23" d="M62.2,145.16c1.95-8.69,1.05-18.77-1.17-19.14-2.18-.36-5.74,8.58-7.02,16.15-1.22,7.19-.93,16.32,1.17,16.75,2.01,.41,5.54-7.17,7.02-13.76Z"/>
    <path class="cls-17" d="M23.57,138.57c1.15-1.12,5.35,1.7,11.71,5.98,4.87,3.28,16.43,11.06,15.22,13.76-.91,2.02-9,1.25-15.22-2.39-8.75-5.12-13.41-15.69-11.71-17.35Z"/>
    <path class="cls-23" d="M11.87,152.33c.7-2.09,10.94-.23,15.51,.6,6.31,1.14,21.03,4.47,20.78,7.18-.21,2.27-10.94,4.29-20.78,1.79-8.47-2.15-16.17-7.61-15.51-9.57Z"/>
    <path class="cls-17" d="M11.87,167.29c-.05,1.72,9.04,4.38,18.14,3.59,9.65-.83,18.53-5.47,18.14-7.18-.38-1.72-10.22-.77-18.14,0-7.6,.74-18.09,1.76-18.14,3.59Z"/>
    <path class="cls-17" d="M59.86,187.63c.61,5.33,.64,13.38-1.17,13.76-1.77,.38-4.95-6.62-6.44-12.56-2.32-9.26-1.55-19.99,.59-20.34,2.17-.35,5.98,9.97,7.02,19.14Z"/>
    <path class="cls-19" d="M40.54,185.84c-.76,8.46,2.98,17.51,5.27,17.35,1.02-.07,1.68-1.95,2.34-4.19,2.7-9.17,6.96-29.88,2.93-31.11-2.88-.88-9.66,8.28-10.54,17.95Z"/>
    <path class="cls-23" d="M18.89,189.43c1.46,2.08,11.15-1.76,18.14-7.18,7.23-5.6,13.27-14.2,11.71-16.15-1.53-1.92-10.29,2.65-15.8,6.58-7.88,5.62-15.6,14.54-14.05,16.75Z"/>
    <path class="cls-25" d="M94.39,163.7c0-2.37-11.48-4.85-21.66-4.19-6.31,.41-14.63,2.2-14.63,4.19s8.32,3.77,14.63,4.19c10.18,.67,21.66-1.82,21.66-4.19Z"/>
    <path class="cls-23" d="M85.61,151.74c.64-.58,7.01-6.35,5.85-8.38-1.38-2.4-12.89,1.34-21.66,6.58-1.05,.63-13.41,8.08-12.29,10.77,1.17,2.82,17.33,.78,28.09-8.97Z"/>
    <path class="cls-23" d="M54.86,167.78c1.15-1.12,5.35,1.7,11.71,5.98,4.87,3.28,16.43,11.06,15.22,13.76-.91,2.02-9,1.25-15.22-2.39-8.75-5.12-13.41-15.69-11.71-17.35Z"/>
    <path class="cls-19" d="M58.37,164.19c.83-1.17,4.11,1.73,14.37,3.7,5.14,.99,8.06,.98,12.88,2.99,3.16,1.32,7.12,2.97,7.02,4.79-.14,2.71-9.35,6.06-17.56,4.19-10.87-2.48-18.1-13.69-16.71-15.67Z"/>
    <path class="cls-17" d="M55.48,158.57c1.31,1.93,10.79-1.57,18.14-7.18,6.72-5.12,13.46-13.38,11.71-16.15-1.23-1.95-6.56-1.03-9.67,.34-2.22,.98-3.86,2.43-5.85,4.19-2.11,1.86-3.51,3.49-4.1,4.19-7.47,8.79-11.2,13.19-10.23,14.62Z"/>
    <path class="cls-30" d="M1.68,302.71c3.77,3.73,14.42,2.53,20.9,0,11.69-4.57,18.47-16.87,12.9-23.07-2.8-3.11-8.42-4.37-12.9-4.07-15.37,1.03-27.09,21.02-20.9,27.14Z"/>
    <path class="cls-30" d="M68.71,302.89c-3.77,3.73-14.42,2.53-20.9,0-11.69-4.57-18.47-16.87-12.9-23.07,2.8-3.11,8.42-4.37,12.9-4.07,15.37,1.03,27.09,21.02,20.9,27.14Z"/>
    <path class="cls-38" d="M24.66,281.53c-1.03,.25-5.81,1.51-8.53,5.42-2.23,3.19-1.76,6.24-1.55,7.23"/>
    <path class="cls-38" d="M22.14,285.07c-2.12,.96-5.24,2.65-8.01,5.43-1.72,1.73-2.83,3.4-3.56,4.75"/>
    <path class="cls-38" d="M25.7,285.75c-.09,1.11-.46,2.66-1.78,4.07-1.34,1.44-2.93,1.93-4.45,2.71-1.9,.98-4.31,2.74-6.23,6.11"/>
    <path class="cls-38" d="M15.03,301.35c1.57-.23,7.45-1.25,11.56-5.43,2.63-2.67,3.33-5.4,3.56-6.78"/>
    <path class="cls-38" d="M38.16,289.82c.29,1.14,1.47,5.05,6.23,8.14,4.77,3.1,10.04,3.36,11.56,3.39"/>
    <path class="cls-38" d="M51.5,283.71c5.94,1.64,7.62,3.4,8.01,4.75,.21,.71,.11,1.54,.89,2.71,.87,1.32,1.82,1.56,2.67,2.71,.5,.69,1.01,1.76,.89,3.39"/>
    <path class="cls-38" d="M55.06,281c2.11,.94,6.06,3,8.9,6.78,1.54,2.05,2.29,3.98,2.67,5.43"/>
    <path class="cls-38" d="M42.34,288.66c.95,2.79,2.73,4.34,3.92,5.16,.27,.19,1.6,1.08,3.82,1.83,1.51,.51,2.94,.79,4.09,.95"/>
    <path class="cls-38" d="M47.94,287.1c1.23,.12,2.94,.43,4.45,1.36,2.52,1.55,2.39,3.56,4.45,6.11,.94,1.16,2.52,2.67,5.34,4.07"/>
    <path class="cls-14" d="M61.58,380.82c-3.42,4.8-11.81,3.89-13.43,3.72-1.43-.16-9.8-1.06-11.6-5.94-2.48-6.73,7.95-19.9,16.57-18.16,7.57,1.52,12.75,14.35,8.45,20.39Z"/>
    <path class="cls-13" d="M58.9,367.49c-.58,2.67-4.15,5.25-7.37,4.25-2.69-.83-3.88-3.77-3.84-6.07,.03-2.04,1.03-4.71,3.02-5.46,3.39-1.28,9.05,3.32,8.2,7.28Z"/>
    <path class="cls-11" d="M26.11,398.54c-1.74,10.61,.08,22.29,1.95,22.26,.83-.01,1.62-2.34,2.44-5.11,3.4-11.37,9.57-37.18,6.48-39.02-2.21-1.32-8.9,9.75-10.88,21.88Z"/>
    <path class="cls-6" d="M32.53,399.45c-1.74,10.61,.08,22.29,1.95,22.26,.83-.01,1.62-2.34,2.44-5.11,3.4-11.37,9.57-37.18,6.48-39.02-2.21-1.32-8.9,9.75-10.88,21.88Z"/>
    <path class="cls-11" d="M40.61,400.16c-1.74,10.61,.08,22.29,1.95,22.26,.83-.01,1.62-2.34,2.44-5.11,3.4-11.37,9.57-37.18,6.48-39.02-2.21-1.32-8.9,9.75-10.88,21.88Z"/>
    <path class="cls-6" d="M48.85,399.26c-1.74,10.61,.08,22.29,1.95,22.26,.83-.01,1.62-2.34,2.44-5.11,3.4-11.37,9.57-37.18,6.48-39.02-2.21-1.32-8.9,9.75-10.88,21.88Z"/>
    <path class="cls-11" d="M57.11,400.06c-2.95,16.56-3,20.33-1.38,21.07,1.7,.78,4.6-2.17,5.16-2.74,11.85-12.02,3.23-40.86,1.84-40.75-.45,.04-1.15,3.17-1.15,3.17h0s-2.83,10.02-4.47,19.24Z"/>
    <path class="cls-6" d="M19.77,391.02c-1.68,3.59-6.97,14.86-2.64,25.13,1.84,4.37,5.46,8.63,7.31,8.01,2.01-.67,2.4-7.23,2.41-7.23,0,0,0,.07-.03,.08-.18,.03-.95-4.16-1.1-5.01-1.29-7.05,.9-16.29,.9-16.29,3.38-14.24,10.03-22.12,8.93-22.94-1.17-.87-10.37,6.74-15.77,18.24Z"/>
    <path class="cls-6" d="M74.18,395.97c.8,3.83,3.31,15.87-2.66,25.28-2.54,4-6.65,7.6-8.19,6.68-1.67-1-.71-7.55-.72-7.55,0,0-.01,.07,0,.08,.16,.06,1.69-3.95,2-4.76,2.58-6.75,2.46-16.24,2.46-16.24-.19-14.64-4.6-23.56-3.45-24.18,1.22-.66,7.99,8.41,10.55,20.69Z"/>
    <path class="cls-14" d="M76.89,528.5c.45,10.04-7.95,21.65-16,22-10.85,.47-22-19.45-22-37,0-21.61,17.84-38.8,22-37,3.69,1.6-2.71,13.72,4,30,4.89,11.87,11.61,13.32,12,22Z"/>
    <path class="cls-12" d="M55.39,518.75c.12,3.61-2.14,7.79-4.31,7.91-2.92,.17-5.92-7-5.92-13.31,0-7.77,4.8-13.96,5.92-13.31,.99,.58-.73,4.94,1.08,10.79,1.32,4.27,3.13,4.79,3.23,7.91Z"/>
    <path class="cls-30" d="M720.81,39.09c-2.37,6.37-2.09,15.81,3.32,19.79,8.28,6.09,27.06-1.72,34.07-13.46,4.46-7.47,4.25-16.66,4.15-20.59-.15-6.21-1.66-15.83-1.66-15.83h0c-8.49,5.42-17.7,9.85-25.76,15.83-8.13,6.03-12.23,9.15-14.13,14.25Z"/>
    <path class="cls-38" d="M724.13,42.25c.71-1.29,1.54-2.62,2.49-3.96,4.39-6.16,9.79-10.15,14.13-12.67"/>
    <path class="cls-38" d="M722.47,47c2-2.86,3.81-5.01,4.99-6.33,7.22-8.14,12.61-10.32,20.77-19,1.91-2.03,3.34-3.75,4.15-4.75"/>
    <path class="cls-38" d="M722.23,50.79c.63-.74,1.26-1.47,1.9-2.21,10.98-12.6,22.83-23.55,35.14-33.08"/>
    <path class="cls-38" d="M725.8,54.92c.92-2.06,2.01-4.18,3.32-6.33,7.19-11.83,17.43-18.91,24.93-22.96"/>
    <path class="cls-38" d="M730.78,56.5c2.36-1.71,4.91-3.8,7.48-6.33,4.54-4.47,7.74-8.95,9.97-12.67"/>
    <path class="cls-38" d="M736.6,56.5c2.85-2.02,6.02-4.62,9.14-7.92,6.78-7.17,10.45-14.56,12.46-19.79"/>
    <path class="cls-38" d="M745.74,53.34c1.95-1.2,4.35-2.98,6.65-5.54,4.29-4.78,5.95-9.8,6.65-12.67"/>
    <path class="cls-38" d="M726.63,55.71c3.85-3.1,6.58-5.95,8.31-7.92,6.53-7.41,6.49-10.79,12.46-15.04,2.18-1.55,3.79-2.24,6.65-4.75,2.73-2.4,4.63-4.72,5.82-6.33"/>
    <path class="cls-27" d="M818.44,150.99c-.31,1.06-5.1,16.35-19.65,16.35-10.86,0-19.65-7.32-19.65-16.35,0-11.69,17.62-15.86,19.65-16.35,3.21-.77,11.22-2.67,16.48,1.05,6.35,4.5,3.66,13.64,3.17,15.29Z"/>
    <path class="cls-27" d="M855.21,143.08c2.26,13.09-17.09,26.59-27.26,23.73-7.83-2.2-11.53-14.46-8.24-23.73,1.8-5.07,7.62-14.71,17.75-14.77,9.25-.05,16.57,7.91,17.75,14.77Z"/>
    <ellipse class="cls-18" cx="797.83" cy="141.76" rx="2.85" ry="2.37"/>
    <ellipse class="cls-18" cx="805.44" cy="138.33" rx="6.02" ry="2.11"/>
    <ellipse class="cls-18" cx="824.46" cy="139.65" rx="2.85" ry="2.37"/>
    <path class="cls-18" d="M838.09,136.22c-.55,1.79-4.42,2.17-6.34,2.11-1.98-.06-5.37-.68-5.71-2.11-.41-1.76,3.8-4.91,7.61-4.22,2.52,.46,4.93,2.61,4.44,4.22Z"/>
    <path class="cls-29" d="M819.7,143.08v-14.24c0-8.42,0-8.34,0-8.44-.19-5.43-.31-8.75-2.54-12.13-1.72-2.6-4.05-4.28-5.71-5.27h4.44c.77,.13,1.93,.42,3.17,1.05,.36,.18,2.03,1.07,3.17,2.64,1.37,1.87,1.26,3.83,1.27,5.27,.05,9.88-1.9,20.57-1.9,20.57-.36,1.97-1.04,5.69-1.9,10.55Z"/>
    <path class="cls-20" d="M770.88,131.48c.42,.34,9.81-11.23,23.46-11.6,3.3-.09,4.35,.54,7.61,0,9.41-1.57,16.76-9.53,15.22-11.6-1.7-2.28-14.96,1.54-24.09,5.8-15.17,7.08-22.58,17.09-22.19,17.4Z"/>
    <ellipse class="cls-21" cx="784.77" cy="280.66" rx="14.24" ry="14.84"/>
    <ellipse class="cls-26" cx="781.84" cy="281.53" rx="3.77" ry="2.62"/>
    <path class="cls-27" d="M759.18,373.13c.02-2.77-3.52-4.18-2.93-5.68,.58-1.46,4.02-.38,5.12-2.13,1.15-1.83-.77-5.91-3.66-7.1-1.53-.63-2.36-.05-2.93-.71-.97-1.12,.69-3.66,4.39-9.94,3.2-5.43,4.16-7.29,4.76-7.1,.85,.27-.93,4.06,.37,9.23,1.11,4.43,3.03,4.06,3.66,7.81,.73,4.39-1.73,5.86-.73,11.36,.21,1.14,.49,2.61,1.46,4.26,1.62,2.73,3.15,2.57,3.66,4.26,.91,3.02-3.56,4.96-2.93,8.52,.4,2.24,1.86,1.89,2.93,4.97,1.46,4.21,0,9.23,0,9.23,9.71,8.13,9.51,8.52,9.51,8.52-10.34-1.05-13.24-3.54-13.9-5.68-.7-2.25,1.34-3.2,.73-6.39-.82-4.31-4.91-4.48-6.59-9.94-.59-1.92-.38-2.86-1.46-4.26-1.75-2.26-4-2.02-4.39-3.55-.49-1.92,2.91-2.98,2.93-5.68Z"/>
    <path class="cls-7" d="M778.08,369.83c.02-2.77-3.52-4.18-2.93-5.68,.58-1.46,4.02-.38,5.12-2.13,1.15-1.83-.77-5.91-3.66-7.1-1.46-.6-2.05-.07-2.93-.71-2.19-1.58-1.4-7.07,.86-10.9,2.3-3.91,6.71-7.09,8.28-6.14,1.38,.83-.95,3.99,.37,9.23,1.11,4.43,3.03,4.06,3.66,7.81,.73,4.39-1.73,5.86-.73,11.36,.21,1.14,.49,2.61,1.46,4.26,1.62,2.73,3.15,2.57,3.66,4.26,.91,3.02-3.56,4.96-2.93,8.52,.48,2.68,3.37,3.48,2.93,4.97-.5,1.7-4.03,1.12-6.59,2.84-6,4.05-2.14,18.12-2.8,18.21-.45,.06-3.77-6.36-2.33-13.95,.71-3.75,2.43-7,1.59-11.61-.22-1.21-.5-2.64-1.59-4.01-1.81-2.27-4.01-2.05-4.39-3.55-.49-1.92,2.91-2.98,2.93-5.68Z"/>
    <path class="cls-27" d="M797.1,372.67c-.04-2.82-3.51-4.2-2.93-5.68,.58-1.46,4.02-.38,5.12-2.13,1.15-1.83-.77-5.91-3.66-7.1-1.53-.63-2.36-.05-2.93-.71-.97-1.12,.69-3.66,4.39-9.94,3.37-5.72,3.63-7.09,4.76-7.1,2.21-.02,4.81,5.03,4.89,9.69,.05,3.12-1.1,3.75-.86,7.35,.23,3.59,1.41,3.59,1.59,6.85,.26,4.63-2.05,5.95-.86,8.77,1.04,2.47,3.04,2.04,3.66,4.26,.69,2.48-1.69,3.46-2.93,8.52-.81,3.33-.14,4.38-1.33,5.43-1.83,1.61-4.19-.15-6.59,1.42-1.6,1.05-1.32,2.35-2.93,5.68-.52,1.07-2.31,4.51-5.12,7.1-3.68,3.39-8.92,4.47-9.51,3.55-.56-.86,3.56-2.55,5.85-7.81,1.51-3.48,.77-5.17,2.93-7.81,.9-1.11,2.07-1.92,4.39-3.55,4.37-3.06,5.73-3.15,5.85-4.26,.27-2.5-6.48-3.72-6.59-7.1-.07-2.23,2.83-2.84,2.8-5.43Z"/>
    <path class="cls-30" d="M796.89,506.5c-1.88,3.42-7.99,14.67-5,27,2.48,10.24,8.92,18.42,7,20-1.47,1.21-6.73-2.48-7-2-.1,.18,.6,.64,2,2,1.99,1.93,1.98,2.37,3,3,.69,.43,1.08,.37,4,1,3.19,.69,3.59,.52,5,1,3.18,1.1,3.31,3.01,5,3,2.99-.02,5.32-5.77,5-6-.25-.18-1.81,3.11-4,3-2.24-.11-4.74-3.72-4-6,.89-2.73,5.79-.93,13-4,9.26-3.95,14.97-12.81,17-16,1.57-2.47,8.44-13.23,6-27-.51-2.87-3.07-17.37-13-21-12.11-4.43-27.46,10.13-34,22Z"/>
    <path class="cls-27" d="M849.08,499.01c9.31,7.98,14.1,12,20.52,13.38,10.39,2.22,21.82-1.44,21.79-4.94-.02-1.92-3.48-2.35-7.77-6.15-8.19-7.24-4.16-13.26-10.72-18.1-3.78-2.79-9.54-3.11-21.05-3.76-10.8-.61-16.7-.94-18.14,1.52-1.9,3.24,5.12,9.26,15.38,18.06Z"/>
    <path class="cls-7" d="M841.24,513.51c2.38,2.57,3.4,1.51,9.65,4.99,7.69,4.28,13.2,9.81,14,9,0,0,.06-.06,0-2h0c.99-7.55,1-8,1-8,.06-2.34-1.2-5.93-3.71-13.12,0,0-1.92-5.16-4.69-8.99-.41-.57-.93-1.13-1.64-1.7-3.32-2.68-4.9-.97-10.7-3.77-5.66-2.73-7.33-5.9-8.78-4.98-.73,.46-1.35,1.91,.46,13.16,1.98,12.28,3.26,14.17,4.42,15.42Z"/>
    <path class="cls-7" d="M840.89,466.5c2.1-7.63,1.76-14.9,1-15-.81-.11-.6,8.14-6,18-1.55,2.82-5.63,9.56-5,10,.15,.1,.49-.17,1,0,.66,.22,.74,.89,1,1,.88,.37,5.56-5.12,8-14Z"/>
    <path class="cls-15" d="M810.8,534.45c1.1-2.09,2.22-4.86,2.22-4.86,.57-1.42,.93-2.43,.93-2.43,.41-1.17,.51-1.67,.87-2.93,.38-1.32,.88-2.9,1.31-4.2,1.03-3.11,2.5-7.52,2.23-7.99-.17-.31-.96,1.34-3.24,4.5-.73,1.02-1.29,1.78-1.99,2.58-1.71,1.93-3.14,2.73-3.49,2.95-4.12,2.58-11.03,20-10.18,21.83,.2,.42,.62-.39,2.91-2.36,4.88-4.19,6.61-3.61,8.43-7.08Z"/>
    <path class="cls-32" d="M388.89,272.5l5,83c4.22,2.62,12.98,7.25,25,8,14.72,.91,25.68-4.54,30-7l3-83"/>
    <path class="cls-32" d="M484.89,.5l-26,269c-6.06,3.45-18.79,9.63-36,10-20.23,.44-35.02-7.39-41-11L346.89,.5h138.5"/>
    <text class="cls-4" transform="translate(387.7 119.47)"><tspan class="cls-2" x="0" y="0">A</tspan><tspan class="cls-3" x="3.66" y="0">c</tspan><tspan class="cls-1" x="9.27" y="0">ai anti</tspan><tspan class="cls-31" x="32.17" y="0">-</tspan><tspan class="cls-1" x="34.62" y="0">stress</tspan></text>
    <text class="cls-5" transform="translate(371.22 131.07) scale(.98 1)"><tspan x="0" y="0">FACIAL CREAM</tspan></text>
    <line class="cls-35" x1="26.89" y1="62.5" x2="29.89" y2="58.5"/>
    <line class="cls-35" x1="26.89" y1="66.5" x2="36.89" y2="55.5"/>
    <line class="cls-35" x1="32.89" y1="65.5" x2="37.89" y2="59.5"/>
    <line class="cls-35" x1="34.89" y1="67.5" x2="44.89" y2="56.5"/>
    <line class="cls-35" x1="52.89" y1="65.5" x2="63.89" y2="55.5"/>
    <line class="cls-35" x1="56.89" y1="65.5" x2="65.89" y2="57.5"/>
    <line class="cls-34" x1="62.89" y1="65.5" x2="72.89" y2="55.5"/>
    <line class="cls-35" x1="82.89" y1="65.5" x2="86.89" y2="60.5"/>
    <path class="cls-22" d="M86.2,49.65c-1.43,2.42-9.72-2.83-21.75-4.01-13.44-1.33-23.55,3.2-24.91,0-.44-1.02,.19-2.46,.79-3.21,2.12-2.63,7.58-1.11,7.91-2.41,.18-.73-1.48-1.32-1.35-2.52,.1-.93,1.19-1.54,2-2,1.43-.81,2.76-.97,3-1,4.57-.51,10.39,1.59,15.32,2.31,.56,.08,2.2,.31,4.35,.94,.62,.18,1.28,.4,1.98,.66,1.4,.52,3.04,1.42,6.33,3.21,3.45,1.88,4.11,2.39,4.74,3.21,.84,1.08,2.31,3.58,1.58,4.82Z"/>
    <ellipse class="cls-26" cx="807.39" cy="252.72" rx="2.51" ry="4.37"/>
    <path class="cls-28" d="M799.01,243.99c.59,.11,2.94,.7,4.87-.59,1.12-.75,1.71-1.87,2.01-2.62,1.51-2.14,1.07-2.2,4.73-7.69,2.17-3.27,4.33-6.25,3.82-6.91-.33-.43-2.26,.79-6,3.14-.8,.51-1.21,.75-1.57,1-2.61,1.84-3.14,3.13-4.5,4.07-1.97,1.36-3.59,.57-5.86,.87-3.18,.42-5.25,2.67-10.05,8.73-5.97,7.52-10.64,13.42-10.05,13.97,1,.94,15.66-15.29,22.62-13.97Z"/>
    <ellipse class="cls-21" cx="804.87" cy="252.72" rx="14.24" ry="14.84"/>
    <path class="cls-26" d="M810.39,252c-.56,1.99-4.59,2-5,2-1.81-.01-4.76-.64-5-2-.3-1.74,3.77-5.08,7-4,1.76,.59,3.41,2.53,3,4Z"/>
    <path class="cls-9" d="M448.67,436.09c4.26,1.6,1.47,28.1-18.35,30.95-15.12,2.17-33.49-10.37-31.08-18.19,1.98-6.44,18.65-11.54,26.22-8.42,2.13,.88,2.3,1.9,4.49,2.44,7.62,1.88,15.82-7.88,18.73-6.79Z"/>
    <path class="cls-27" d="M813.89,498.5c-4.24,2.46-8.95,.66-9,1-.07,.5,9.99,5.47,18,1,7.28-4.06,10.02-14.34,8-16-1.54-1.27-6.77,1.71-10,5-3.9,3.97-3.42,6.92-7,9Z"/>
    <path class="cls-7" d="M833.89,505.5c-1.17,2.5-3.11,4.67-7,9-2.55,2.84-5.95,6.63-7,6-.85-.51,.53-3.47,2-11,.6-3.07,.68-4.2,1-6,1.18-6.72,4.92-19.18,8-19,2.98,.17,7.08,12.29,3,21Z"/>
    <path class="cls-27" d="M845.91,504.64c3.53,3.43,7.45,.92,7.48,1.39,.06,.7-8.31,7.62-14.97,1.39-6.05-5.66-8.33-19.97-6.65-22.29,1.28-1.76,5.63,2.38,8.32,6.96,3.24,5.54,2.84,9.65,5.82,12.54Z"/>
    <path class="cls-7" d="M823.89,481.5c-.1-1.9,3.65-4.38,7-4,5.01,.56,8.25,7.38,7,9-.8,1.03-3.58,.12-7-1-3.59-1.18-6.9-2.26-7-4Z"/>
    <text class="cls-40" transform="translate(17.58 91.81)"><tspan x="0" y="0">ALOE VERA</tspan></text>
    <text class="cls-40" transform="translate(1.29 222.5)"><tspan x="0" y="0">PURPURSOLHAT</tspan></text>
    <text class="cls-40" transform="translate(17.77 324.78)"><tspan x="0" y="0">SHEA</tspan></text>
    <text class="cls-40" transform="translate(14.55 444.69)"><tspan x="0" y="0">KAMILLE</tspan></text>
    <text class="cls-40" transform="translate(25.86 574.23)"><tspan x="0" y="0">VITAMIN E</tspan></text>
    <text class="cls-40" transform="translate(707.05 79.11)"><tspan x="0" y="0">MANDEL</tspan></text>
    <text class="cls-40" transform="translate(790.97 186.17)"><tspan x="0" y="0">OLIVEN</tspan></text>
    <text class="cls-40" transform="translate(759.36 317.02)"><tspan x="0" y="0">ACAI BÆR</tspan></text>
    <text class="cls-40" transform="translate(762.24 426)"><tspan x="0" y="0">ALGE</tspan></text>
    <text class="cls-40" transform="translate(782.89 578.59)"><tspan x="0" y="0">JOJOBA</tspan></text>
    <path class="cls-7" d="M782.8,485.75c8.04,3.63,12.15,5.45,16.75,5.94,13.43,1.44,28.68-4.43,28.84-9.52,.04-1.11-2.63-3.44-7.98-8.1-3.43-2.99-5.39-4.36-8.1-5.6-.69-.32-3.01-1.34-6.38-2.16-1.5-.36-7.82-1.86-14.36-1.08-10.1,1.2-10.55,6.61-19.94,7.56-7.27,.74-11.95-2-12.76-1.08-1.41,1.6,13.18,9.19,23.93,14.04Z"/>
  </g>
</svg>