<?xml version="1.0" encoding="UTF-8"?>
<svg id="Lag_2" data-name="Lag 2" xmlns="http://www.w3.org/2000/svg" viewBox="0 0 873.59 177.87">
  <defs>
    <style>
      .cls-1 {
        fill: #1d1d1b;
      }
    </style>
  </defs>
  <g id="Lag_1-2" data-name="Lag 1">
    <g>
      <path class="cls-1" d="M74.75,91.65h-26.26l-.26-.13c2.86-.95,4.05-2.48,3.57-4.59-.48-2.11-1.8-4.51-3.96-7.18l-13.39-16.82H15.6v16.82c0,2.67,.58,5.09,1.76,7.25,1.17,2.16,3.53,3.67,7.08,4.53v.13H0v-.13c3.55-.87,5.91-2.38,7.08-4.55,1.17-2.17,1.75-4.59,1.75-7.28V13.26c0-2.69-.58-5.09-1.75-7.21C5.91,3.92,3.55,2.38,0,1.43v-.13H37.18c5.55,0,10.55,.74,15.02,2.22,4.46,1.48,8.21,3.54,11.25,6.19,3.03,2.65,5.37,5.86,7.02,9.64,1.65,3.78,2.47,8.01,2.47,12.7,0,8.6-2.64,15.61-7.93,21.04-5.29,5.43-12.7,8.62-22.23,9.57l13.52,17.08c2.08,2.67,4.55,5.07,7.41,7.18,2.86,2.11,6.46,3.65,10.79,4.59l.26,.13Zm-38.22-31.46c5.2,0,9.64-.67,13.33-2.02,3.68-1.34,6.69-3.23,9.03-5.65,2.34-2.43,4.05-5.37,5.14-8.84,1.08-3.47,1.62-7.32,1.62-11.57s-.54-8.1-1.62-11.57c-1.08-3.47-2.79-6.41-5.14-8.84-2.34-2.43-5.35-4.31-9.03-5.65-3.69-1.34-8.12-2.02-13.33-2.02H15.6V60.19h20.93Z"/>
      <path class="cls-1" d="M95.48,78.65c1.08,3.03,2.54,5.5,4.35,7.41,1.82,1.91,3.9,3.31,6.24,4.22s4.77,1.37,7.28,1.37c2.69,0,5.31-.5,7.87-1.5,2.56-1,4.85-2.49,6.89-4.49,2.04-1.99,3.68-4.48,4.94-7.47,1.26-2.99,1.88-6.44,1.88-10.33V13.26c0-2.69-.58-5.09-1.75-7.21-1.17-2.12-3.53-3.66-7.08-4.62v-.13h20.41v.13c-3.55,.96-5.92,2.49-7.08,4.62-1.17,2.12-1.76,4.53-1.76,7.21v54.6c0,4.25-.71,7.95-2.15,11.12-1.43,3.16-3.34,5.78-5.72,7.86-2.38,2.08-5.09,3.62-8.12,4.62-3.03,1-6.11,1.5-9.23,1.5s-6.2-.5-9.23-1.5c-3.03-1-5.74-2.49-8.12-4.49-2.38-1.99-4.31-4.48-5.79-7.47-1.47-2.99-2.21-6.43-2.21-10.33V13.26c0-2.69-.58-5.09-1.75-7.21-1.17-2.12-3.53-3.66-7.08-4.62v-.13h24.44v.13c-3.55,.96-5.92,2.49-7.08,4.62-1.17,2.12-1.76,4.53-1.76,7.21v54.6c0,4.16,.54,7.76,1.62,10.79Z"/>
      <path class="cls-1" d="M186.94,1.3c6.5,0,12.09,1.3,16.77,3.9,4.68,2.6,8.51,6.02,11.5,10.27,2.99,4.25,5.2,9.1,6.63,14.56,1.43,5.46,2.15,11.01,2.15,16.64s-.71,11.14-2.15,16.51c-1.43,5.38-3.64,10.19-6.63,14.43-2.99,4.25-6.83,7.65-11.5,10.21-4.68,2.56-10.27,3.83-16.77,3.83h-35.88v-.13c3.55-.87,5.91-2.38,7.08-4.55,1.17-2.17,1.75-4.59,1.75-7.28V13.26c0-2.69-.58-5.09-1.75-7.21-1.17-2.12-3.53-3.66-7.08-4.62v-.13h35.88Zm-1.69,87.62c6.24,0,11.38-1.21,15.4-3.63,4.03-2.42,7.24-5.6,9.62-9.54,2.38-3.94,4.05-8.44,5-13.5,.95-5.06,1.43-10.23,1.43-15.51s-.48-10.6-1.43-15.71c-.95-5.11-2.62-9.67-5-13.69-2.38-4.02-5.61-7.25-9.69-9.67-4.07-2.42-9.19-3.64-15.34-3.64h-18.59V88.92h18.59Z"/>
      <path class="cls-1" d="M279.89,0c6.93,0,13.24,1.1,18.92,3.31,5.68,2.21,10.55,5.37,14.62,9.49,4.07,4.12,7.24,9.04,9.49,14.76,2.25,5.72,3.38,12.09,3.38,19.11s-1.13,13.24-3.38,18.92c-2.25,5.68-5.42,10.55-9.49,14.62-4.07,4.08-8.95,7.21-14.62,9.42-5.68,2.21-11.98,3.32-18.92,3.32s-13.26-1.11-18.98-3.32-10.62-5.35-14.69-9.42c-4.07-4.07-7.21-8.95-9.42-14.62-2.21-5.67-3.32-11.98-3.32-18.92s1.1-13.39,3.32-19.11c2.21-5.72,5.35-10.64,9.42-14.76,4.07-4.12,8.97-7.28,14.69-9.49s12.05-3.31,18.98-3.31Zm0,91.65c5.81,0,11.12-1.08,15.92-3.25,4.81-2.17,8.93-5.22,12.35-9.17,3.42-3.94,6.09-8.67,8-14.17,1.91-5.5,2.86-11.64,2.86-18.4s-.95-13.04-2.86-18.59c-1.91-5.55-4.57-10.31-8-14.3-3.42-3.99-7.54-7.06-12.35-9.23-4.81-2.17-10.12-3.25-15.92-3.25s-11.22,1.08-15.99,3.25c-4.77,2.17-8.88,5.24-12.35,9.23-3.47,3.99-6.13,8.75-8,14.3-1.86,5.55-2.79,11.74-2.79,18.59s.93,12.89,2.79,18.4c1.86,5.5,4.53,10.23,8,14.17,3.47,3.94,7.58,7,12.35,9.17,4.77,2.17,10.1,3.25,15.99,3.25Z"/>
      <path class="cls-1" d="M392.21,66.82l-2.86,25.74c-.44-.35-1.02-.58-1.76-.72-.74-.13-1.32-.19-1.75-.19h-53.43v-.13c3.12-.78,5.37-2.15,6.76-4.1,1.39-1.95,2.08-4.53,2.08-7.73V13.26c0-3.21-.69-5.78-2.08-7.73-1.39-1.95-3.64-3.31-6.76-4.1v-.13h24.44v.13c-3.12,.78-5.38,2.15-6.76,4.1-1.39,1.95-2.08,4.53-2.08,7.73V89.05h24.31c1.91,0,3.88-.24,5.92-.71,2.04-.48,3.96-1.5,5.79-3.05,1.82-1.56,3.4-3.79,4.74-6.7,1.34-2.9,2.23-6.83,2.67-11.76h.78Z"/>
      <path class="cls-1" d="M433.68,1.3c5.54,0,10.55,.74,15.01,2.22,4.46,1.48,8.21,3.54,11.25,6.19,3.03,2.65,5.37,5.86,7.02,9.64,1.65,3.78,2.47,8.01,2.47,12.7s-.83,8.92-2.47,12.7c-1.65,3.78-3.99,7.01-7.02,9.71-3.04,2.69-6.78,4.78-11.25,6.25-4.46,1.48-9.47,2.21-15.01,2.21h-21.58v16.82c0,2.67,.58,5.09,1.75,7.25s3.53,3.67,7.08,4.53v.13h-24.44v-.13c3.55-.87,5.92-2.38,7.08-4.55,1.17-2.17,1.75-4.59,1.75-7.28V13.26c0-2.69-.58-5.09-1.75-7.21-1.17-2.12-3.53-3.66-7.08-4.62v-.13h37.18Zm-.65,58.89c5.2,0,9.64-.67,13.33-2.02,3.68-1.34,6.69-3.23,9.04-5.65,2.34-2.43,4.05-5.37,5.13-8.84,1.08-3.47,1.62-7.32,1.62-11.57s-.54-8.1-1.62-11.57c-1.08-3.47-2.79-6.41-5.13-8.84-2.34-2.43-5.35-4.31-9.04-5.65-3.68-1.34-8.12-2.02-13.33-2.02h-20.93V60.19h20.93Z"/>
      <path class="cls-1" d="M535.66,6.04c-1.17,2.12-1.75,4.53-1.75,7.21V79.69c0,2.69,.58,5.11,1.75,7.28,1.17,2.17,3.53,3.69,7.08,4.55v.13h-24.48v-.13c3.52-.87,5.88-2.38,7.08-4.55,1.2-2.17,1.8-4.59,1.8-7.28v-31.85h-37.18v31.85c0,2.69,.59,5.11,1.76,7.28,1.17,2.17,3.55,3.69,7.12,4.55v.13h-24.48v-.13c3.55-.87,5.92-2.38,7.08-4.55,1.17-2.17,1.75-4.59,1.75-7.28V13.26c0-2.69-.58-5.09-1.75-7.21-1.17-2.12-3.53-3.66-7.08-4.62v-.13h24.48v.13c-3.57,.96-5.94,2.49-7.12,4.62-1.18,2.12-1.76,4.53-1.76,7.21v31.85h37.18V13.26c0-2.69-.6-5.09-1.8-7.21-1.2-2.12-3.56-3.66-7.08-4.62v-.13h24.48v.13c-3.55,.96-5.92,2.49-7.08,4.62Z"/>
      <path class="cls-1" d="M625.04,91.65c4.85,0,9.34-.85,13.46-2.54,4.12-1.69,7.69-3.99,10.72-6.89,3.03-2.9,5.4-6.35,7.08-10.33,1.69-3.99,2.54-8.28,2.54-12.87l4.94,14.69c-3.9,6.07-9.17,10.79-15.79,14.17s-14.28,5.07-22.95,5.07c-6.93,0-13.24-1.11-18.92-3.32-5.68-2.21-10.55-5.33-14.62-9.36-4.07-4.03-7.24-8.91-9.49-14.62-2.25-5.72-3.38-12.05-3.38-18.98s1.13-13.41,3.38-19.17c2.25-5.76,5.42-10.68,9.49-14.76,4.07-4.07,8.95-7.21,14.62-9.42,5.68-2.21,11.98-3.31,18.92-3.31,8.67,0,16.32,1.69,22.95,5.07s11.89,8.1,15.79,14.17l-4.94,14.82c0-4.59-.84-8.88-2.54-12.87-1.69-3.99-4.05-7.45-7.08-10.4-3.03-2.95-6.61-5.27-10.72-6.96-4.12-1.69-8.6-2.54-13.46-2.54-5.89,0-11.22,1.08-15.99,3.25-4.77,2.17-8.88,5.22-12.35,9.17-3.47,3.94-6.13,8.71-8,14.3-1.86,5.59-2.79,11.76-2.79,18.52s.93,12.92,2.79,18.46c1.86,5.55,4.53,10.29,8,14.24,3.46,3.94,7.58,7,12.35,9.17,4.77,2.17,10.1,3.25,15.99,3.25Z"/>
      <path class="cls-1" d="M720.33,79.69c.69,2.69,1.91,5.11,3.64,7.28,1.73,2.17,4.51,3.69,8.32,4.55v.13h-24.57v-.13c3.29-.95,5.27-2.49,5.92-4.62,.65-2.12,.63-4.53-.06-7.21l-1.95-8.06h-31.07l-2.08,8.06c-.69,2.69-.71,5.09-.06,7.21,.65,2.12,2.62,3.66,5.92,4.62v.13h-20.41v-.13c3.9-.95,6.69-2.49,8.38-4.62,1.69-2.12,2.88-4.53,3.58-7.21l16.64-67.86c.69-5.2-2.3-8.67-8.97-10.4v-.13h17.68l19.11,78.39Zm-9.36-10.79l-14.95-61.1-14.82,61.1h29.77Z"/>
      <path class="cls-1" d="M808.33,91.65h-26.26l-.26-.13c2.86-.95,4.05-2.48,3.58-4.59-.48-2.11-1.8-4.51-3.97-7.18l-13.39-16.82h-18.85v16.82c0,2.67,.58,5.09,1.75,7.25s3.53,3.67,7.08,4.53v.13h-24.44v-.13c3.55-.87,5.92-2.38,7.08-4.55,1.17-2.17,1.75-4.59,1.75-7.28V13.26c0-2.69-.58-5.09-1.75-7.21-1.17-2.12-3.53-3.66-7.08-4.62v-.13h37.18c5.54,0,10.55,.74,15.01,2.22,4.46,1.48,8.21,3.54,11.25,6.19,3.03,2.65,5.37,5.86,7.02,9.64,1.65,3.78,2.47,8.01,2.47,12.7,0,8.6-2.65,15.61-7.93,21.04-5.29,5.43-12.7,8.62-22.23,9.57l13.52,17.08c2.08,2.67,4.55,5.07,7.41,7.18,2.86,2.11,6.46,3.65,10.79,4.59l.26,.13Zm-38.22-31.46c5.2,0,9.64-.67,13.33-2.02,3.68-1.34,6.69-3.23,9.04-5.65,2.34-2.43,4.05-5.37,5.13-8.84,1.08-3.47,1.62-7.32,1.62-11.57s-.54-8.1-1.62-11.57c-1.08-3.47-2.79-6.41-5.13-8.84-2.34-2.43-5.35-4.31-9.04-5.65-3.68-1.34-8.12-2.02-13.33-2.02h-20.93V60.19h20.93Z"/>
      <path class="cls-1" d="M873.59,66.82l-2.86,25.74c-.43-.35-1.02-.58-1.75-.72-.74-.13-1.32-.19-1.75-.19h-53.43v-.13c3.12-.78,5.37-2.15,6.76-4.1,1.39-1.95,2.08-4.53,2.08-7.73V13.26c0-3.21-.69-5.78-2.08-7.73-1.39-1.95-3.64-3.31-6.76-4.1v-.13h49.27c.43,0,1.04-.06,1.82-.19s1.38-.37,1.82-.71l2.73,25.74h-.78c-.43-4.94-1.3-8.86-2.6-11.77-1.3-2.9-2.86-5.11-4.68-6.63-1.82-1.52-3.77-2.51-5.85-2.99-2.08-.48-4.07-.72-5.98-.72h-20.15V45.11h15.47c3.21,0,5.79-.69,7.74-2.08,1.95-1.39,3.32-3.64,4.09-6.76h.13v20.41h-.13c-.78-3.12-2.14-5.37-4.09-6.76-1.95-1.38-4.53-2.08-7.74-2.08h-15.47v41.21h24.31c1.91,0,3.88-.24,5.92-.71,2.04-.48,3.96-1.5,5.78-3.05,1.82-1.56,3.4-3.79,4.75-6.7,1.34-2.9,2.23-6.83,2.67-11.76h.78Z"/>
    </g>
    <g>
      <path class="cls-1" d="M175.9,151.71c1.8,.13,3.46,.53,4.98,1.19,1.52,.67,2.84,1.54,3.95,2.64,1.11,1.09,1.98,2.41,2.6,3.95,.62,1.54,.93,3.24,.93,5.08s-.35,3.61-1.06,5.17c-.71,1.56-1.67,2.9-2.89,4.02-1.22,1.11-2.68,1.97-4.37,2.57-1.69,.6-3.5,.9-5.43,.9h-22.31v-.06c1.76-.43,2.92-1.18,3.5-2.25,.58-1.07,.87-2.27,.87-3.6v-32.85c0-1.33-.29-2.52-.87-3.57s-1.75-1.81-3.5-2.28v-.06h17.23c1.76,0,3.4,.25,4.92,.74,1.52,.49,2.84,1.19,3.95,2.09,1.11,.9,1.98,1.98,2.6,3.25,.62,1.26,.93,2.69,.93,4.28,0,2.01-.55,3.77-1.64,5.27-1.09,1.5-2.56,2.68-4.4,3.54Zm-15.88-.13h9.19c3.17,0,5.48-.82,6.94-2.45,1.46-1.63,2.19-3.83,2.19-6.58,0-2.58-.73-4.67-2.19-6.26-1.46-1.59-3.77-2.39-6.94-2.39h-9.19v17.68Zm14.27,24.3c3.51,0,6.14-1.04,7.87-3.11,1.74-2.07,2.6-4.91,2.6-8.49s-.87-6.27-2.6-8.3c-1.74-2.03-4.36-3.04-7.87-3.04h-14.27v22.95h14.27Z"/>
      <path class="cls-1" d="M198.94,174.92c.58-1.07,.87-2.27,.87-3.6v-14.46l-8.55-18.38c-.6-1.33-1.44-2.52-2.51-3.57-1.07-1.05-2.59-1.81-4.56-2.28l-.06-.06h12.41l.06,.06c-1.59,.47-2.42,1.23-2.51,2.28-.09,1.05,.19,2.24,.84,3.57l7.44,15.88,8.11-15.88c.64-1.33,.94-2.52,.9-3.57-.04-1.05-.84-1.81-2.38-2.28l.06-.06h10.28l-.06,.06c-2.06,.47-3.63,1.23-4.72,2.28s-1.98,2.24-2.67,3.57l-8.74,17.1v15.75c0,1.33,.3,2.53,.9,3.6,.6,1.07,1.78,1.82,3.54,2.25v.06h-12.15v-.06c1.76-.43,2.92-1.18,3.5-2.25Z"/>
      <path class="cls-1" d="M260.11,171.32c.34,1.33,.94,2.53,1.8,3.6,.86,1.07,2.23,1.82,4.11,2.25v.06h-12.15v-.06c1.63-.47,2.6-1.23,2.92-2.28,.32-1.05,.31-2.24-.03-3.57l-.96-3.99h-15.36l-1.03,3.99c-.34,1.33-.35,2.52-.03,3.57,.32,1.05,1.3,1.81,2.92,2.28v.06h-10.09v-.06c1.93-.47,3.31-1.23,4.15-2.28,.84-1.05,1.42-2.24,1.77-3.57l8.23-33.55c.34-2.57-1.14-4.29-4.44-5.14v-.06h8.74l9.45,38.76Zm-4.63-5.33l-7.39-30.21-7.33,30.21h14.72Z"/>
      <path class="cls-1" d="M299.44,132.56v.06c-1.76,.47-2.94,1.23-3.54,2.28-.6,1.05-.9,2.24-.9,3.57v38.76h-1.35l-21.28-37.93v32.01c0,1.33,.29,2.53,.87,3.6,.58,1.07,1.75,1.82,3.52,2.25v.06h-10.11v-.06c1.76-.43,2.92-1.18,3.5-2.25,.58-1.07,.87-2.27,.87-3.6v-32.85c0-1.33-.29-2.52-.87-3.57s-1.75-1.81-3.5-2.28v-.06h5.72l21.28,37.99v-32.08c0-1.33-.29-2.52-.86-3.57-.57-1.05-1.73-1.81-3.46-2.28v-.06h10.11Z"/>
      <path class="cls-1" d="M319.44,132.56c3.21,0,5.98,.64,8.29,1.93,2.31,1.29,4.21,2.98,5.69,5.08,1.48,2.1,2.57,4.5,3.28,7.2,.71,2.7,1.06,5.44,1.06,8.23s-.35,5.51-1.06,8.16c-.71,2.66-1.8,5.04-3.28,7.13-1.48,2.1-3.38,3.78-5.69,5.05-2.31,1.26-5.08,1.9-8.29,1.9h-17.74v-.06c1.76-.43,2.92-1.18,3.5-2.25,.58-1.07,.87-2.27,.87-3.6v-32.85c0-1.33-.29-2.52-.87-3.57s-1.75-1.81-3.5-2.28v-.06h17.74Zm-.84,43.33c3.09,0,5.62-.6,7.62-1.8s3.58-2.77,4.76-4.72c1.18-1.95,2-4.17,2.47-6.67,.47-2.5,.71-5.06,.71-7.67s-.24-5.24-.71-7.77c-.47-2.53-1.3-4.78-2.47-6.77-1.18-1.99-2.77-3.58-4.79-4.78-2.01-1.2-4.54-1.8-7.58-1.8h-9.19v41.98h9.19Z"/>
      <path class="cls-1" d="M377.87,177.23h-12.98l-.13-.06c1.41-.47,2-1.23,1.77-2.27-.24-1.04-.89-2.23-1.96-3.55l-6.62-8.32h-9.32v8.32c0,1.32,.29,2.52,.87,3.58,.58,1.07,1.75,1.81,3.5,2.24v.06h-12.08v-.06c1.76-.43,2.92-1.18,3.5-2.25,.58-1.07,.87-2.27,.87-3.6v-32.85c0-1.33-.29-2.52-.87-3.57s-1.75-1.81-3.5-2.28v-.06h18.38c2.74,0,5.22,.37,7.42,1.1,2.21,.73,4.06,1.75,5.56,3.06,1.5,1.31,2.66,2.9,3.47,4.77,.81,1.87,1.22,3.96,1.22,6.28,0,4.25-1.31,7.72-3.92,10.4-2.61,2.68-6.28,4.26-10.99,4.73l6.69,8.45c1.03,1.32,2.25,2.51,3.66,3.55s3.19,1.8,5.33,2.27l.13,.06Zm-18.9-15.56c2.57,0,4.77-.33,6.59-1,1.82-.66,3.31-1.6,4.47-2.8,1.16-1.2,2-2.66,2.54-4.37,.54-1.71,.8-3.62,.8-5.72s-.27-4.01-.8-5.72c-.54-1.71-1.38-3.17-2.54-4.37-1.16-1.2-2.65-2.13-4.47-2.8-1.82-.66-4.02-1-6.59-1h-10.35v27.77h10.35Z"/>
      <path class="cls-1" d="M410.13,164.95l-1.41,12.73c-.21-.17-.5-.29-.87-.35-.36-.06-.65-.1-.87-.1h-26.42v-.06c1.54-.39,2.66-1.06,3.34-2.02,.69-.96,1.03-2.24,1.03-3.83v-32.85c0-1.58-.34-2.86-1.03-3.83-.69-.96-1.8-1.64-3.34-2.02v-.06h24.36c.21,0,.51-.03,.9-.1s.69-.18,.9-.35l1.35,12.73h-.39c-.21-2.44-.64-4.38-1.29-5.82-.64-1.43-1.41-2.53-2.31-3.28-.9-.75-1.86-1.24-2.89-1.48-1.03-.23-2.01-.35-2.96-.35h-9.96v20.31h7.65c1.58,0,2.86-.34,3.82-1.03,.96-.68,1.64-1.8,2.02-3.34h.06v10.09h-.06c-.39-1.54-1.06-2.66-2.02-3.34s-2.24-1.03-3.82-1.03h-7.65v20.38h12.02c.94,0,1.92-.12,2.92-.35,1.01-.24,1.96-.74,2.86-1.51s1.68-1.87,2.35-3.31c.66-1.44,1.1-3.38,1.32-5.82h.39Z"/>
      <path class="cls-1" d="M439.38,171.32c.34,1.33,.94,2.53,1.8,3.6,.86,1.07,2.23,1.82,4.11,2.25v.06h-12.15v-.06c1.63-.47,2.6-1.23,2.92-2.28,.32-1.05,.31-2.24-.03-3.57l-.96-3.99h-15.36l-1.03,3.99c-.34,1.33-.35,2.52-.03,3.57,.32,1.05,1.3,1.81,2.92,2.28v.06h-10.09v-.06c1.93-.47,3.31-1.23,4.15-2.28,.84-1.05,1.42-2.24,1.77-3.57l8.23-33.55c.34-2.57-1.14-4.29-4.44-5.14v-.06h8.74l9.45,38.76Zm-4.63-5.33l-7.39-30.21-7.33,30.21h14.72Z"/>
      <path class="cls-1" d="M497.17,177.23h-12.98l-.13-.06c1.41-.47,2-1.23,1.77-2.27-.24-1.04-.89-2.23-1.96-3.55l-6.62-8.32h-9.32v8.32c0,1.32,.29,2.52,.87,3.58,.58,1.07,1.75,1.81,3.5,2.24v.06h-12.08v-.06c1.76-.43,2.92-1.18,3.5-2.25,.58-1.07,.87-2.27,.87-3.6v-32.85c0-1.33-.29-2.52-.87-3.57s-1.75-1.81-3.5-2.28v-.06h18.38c2.74,0,5.22,.37,7.42,1.1,2.21,.73,4.06,1.75,5.56,3.06s2.66,2.9,3.47,4.77c.81,1.87,1.22,3.96,1.22,6.28,0,4.25-1.31,7.72-3.92,10.4-2.61,2.68-6.28,4.26-10.99,4.73l6.69,8.45c1.03,1.32,2.25,2.51,3.66,3.55s3.19,1.8,5.33,2.27l.13,.06Zm-18.9-15.56c2.57,0,4.77-.33,6.59-1,1.82-.66,3.31-1.6,4.47-2.8,1.16-1.2,2-2.66,2.54-4.37,.54-1.71,.8-3.62,.8-5.72s-.27-4.01-.8-5.72-1.38-3.17-2.54-4.37c-1.16-1.2-2.65-2.13-4.47-2.8-1.82-.66-4.02-1-6.59-1h-10.35v27.77h10.35Z"/>
      <path class="cls-1" d="M507.42,170.8c.54,1.5,1.25,2.72,2.15,3.66,.9,.94,1.93,1.64,3.08,2.09,1.16,.45,2.36,.67,3.6,.67,1.33,0,2.62-.25,3.89-.74,1.26-.49,2.4-1.23,3.41-2.22,1.01-.99,1.82-2.22,2.44-3.7,.62-1.48,.93-3.18,.93-5.11v-27c0-1.33-.29-2.52-.87-3.57-.58-1.05-1.75-1.81-3.5-2.28v-.06h10.09v.06c-1.76,.47-2.92,1.23-3.5,2.28s-.87,2.24-.87,3.57v27c0,2.1-.35,3.93-1.06,5.5-.71,1.57-1.65,2.86-2.83,3.89-1.18,1.03-2.52,1.79-4.02,2.28s-3.02,.74-4.56,.74-3.06-.25-4.56-.74-2.84-1.23-4.02-2.22c-1.18-.99-2.13-2.22-2.86-3.7-.73-1.48-1.09-3.18-1.09-5.11v-27.64c0-1.33-.29-2.52-.87-3.57-.58-1.05-1.75-1.81-3.5-2.28v-.06h12.08v.06c-1.76,.47-2.92,1.23-3.5,2.28-.58,1.05-.87,2.24-.87,3.57v27c0,2.06,.27,3.84,.8,5.34Z"/>
      <path class="cls-1" d="M552.64,132.56c3.21,0,5.98,.64,8.29,1.93,2.31,1.29,4.21,2.98,5.69,5.08s2.57,4.5,3.28,7.2c.71,2.7,1.06,5.44,1.06,8.23s-.35,5.51-1.06,8.16-1.8,5.04-3.28,7.13c-1.48,2.1-3.37,3.78-5.69,5.05-2.31,1.26-5.08,1.9-8.29,1.9h-17.74v-.06c1.76-.43,2.92-1.18,3.5-2.25,.58-1.07,.87-2.27,.87-3.6v-32.85c0-1.33-.29-2.52-.87-3.57s-1.75-1.81-3.5-2.28v-.06h17.74Zm-.84,43.33c3.09,0,5.62-.6,7.62-1.8,1.99-1.2,3.58-2.77,4.76-4.72,1.18-1.95,2-4.17,2.47-6.67s.71-5.06,.71-7.67-.24-5.24-.71-7.77-1.3-4.78-2.47-6.77c-1.18-1.99-2.78-3.58-4.79-4.78-2.01-1.2-4.54-1.8-7.58-1.8h-9.19v41.98h9.19Z"/>
      <path class="cls-1" d="M598.6,131.91c3.43,0,6.54,.55,9.35,1.64,2.81,1.09,5.22,2.66,7.23,4.69,2.01,2.04,3.58,4.47,4.69,7.3,1.11,2.83,1.67,5.98,1.67,9.45s-.56,6.55-1.67,9.35c-1.12,2.81-2.68,5.22-4.69,7.23-2.01,2.01-4.43,3.57-7.23,4.66-2.81,1.09-5.92,1.64-9.35,1.64s-6.56-.55-9.39-1.64c-2.83-1.09-5.25-2.65-7.26-4.66s-3.57-4.42-4.66-7.23c-1.09-2.81-1.64-5.92-1.64-9.35s.55-6.62,1.64-9.45,2.65-5.26,4.66-7.3c2.01-2.03,4.44-3.6,7.26-4.69,2.83-1.09,5.96-1.64,9.39-1.64Zm0,45.32c2.87,0,5.5-.54,7.87-1.61,2.38-1.07,4.41-2.58,6.11-4.53,1.69-1.95,3.01-4.29,3.95-7.01,.94-2.72,1.41-5.75,1.41-9.1s-.47-6.45-1.41-9.19c-.94-2.74-2.26-5.1-3.95-7.07-1.69-1.97-3.73-3.49-6.11-4.56-2.38-1.07-5-1.61-7.87-1.61s-5.55,.54-7.91,1.61-4.39,2.59-6.11,4.56c-1.71,1.97-3.03,4.33-3.95,7.07-.92,2.74-1.38,5.81-1.38,9.19s.46,6.38,1.38,9.1c.92,2.72,2.24,5.06,3.95,7.01,1.71,1.95,3.75,3.46,6.11,4.53,2.36,1.07,4.99,1.61,7.91,1.61Z"/>
      <path class="cls-1" d="M654.14,164.95l-1.41,12.73c-.21-.17-.5-.29-.87-.35s-.65-.1-.87-.1h-26.42v-.06c1.54-.39,2.66-1.06,3.34-2.02,.69-.96,1.03-2.24,1.03-3.83v-32.85c0-1.58-.34-2.86-1.03-3.83-.69-.96-1.8-1.64-3.34-2.02v-.06h12.08v.06c-1.54,.39-2.66,1.06-3.34,2.02-.69,.96-1.03,2.24-1.03,3.83v37.48h12.02c.94,0,1.92-.12,2.92-.35s1.96-.74,2.86-1.51c.9-.77,1.68-1.87,2.35-3.31,.66-1.44,1.1-3.38,1.32-5.82h.39Z"/>
      <path class="cls-1" d="M674.65,132.56c2.74,0,5.22,.37,7.42,1.1,2.21,.73,4.06,1.75,5.56,3.06s2.66,2.9,3.47,4.77c.81,1.87,1.22,3.96,1.22,6.28s-.41,4.41-1.22,6.28c-.81,1.87-1.97,3.47-3.47,4.8-1.5,1.33-3.35,2.36-5.56,3.09-2.21,.73-4.68,1.09-7.42,1.09h-10.67v8.32c0,1.32,.29,2.52,.87,3.58,.58,1.07,1.75,1.81,3.5,2.24v.06h-12.08v-.06c1.76-.43,2.92-1.18,3.5-2.25,.58-1.07,.87-2.27,.87-3.6v-32.85c0-1.33-.29-2.52-.87-3.57s-1.75-1.81-3.5-2.28v-.06h18.38Zm-.32,29.12c2.57,0,4.77-.33,6.59-1,1.82-.66,3.31-1.6,4.47-2.8,1.16-1.2,2-2.66,2.54-4.37,.54-1.71,.8-3.62,.8-5.72s-.27-4.01-.8-5.72-1.38-3.17-2.54-4.37c-1.16-1.2-2.65-2.13-4.47-2.8-1.82-.66-4.02-1-6.59-1h-10.35v27.77h10.35Z"/>
      <path class="cls-1" d="M725.07,134.9c-.58,1.05-.87,2.24-.87,3.57v32.85c0,1.33,.29,2.53,.87,3.6,.58,1.07,1.75,1.82,3.5,2.25v.06h-12.11v-.06c1.74-.43,2.91-1.18,3.5-2.25,.59-1.07,.89-2.27,.89-3.6v-15.75h-18.38v15.75c0,1.33,.29,2.53,.87,3.6,.58,1.07,1.75,1.82,3.52,2.25v.06h-12.1v-.06c1.76-.43,2.92-1.18,3.5-2.25,.58-1.07,.87-2.27,.87-3.6v-32.85c0-1.33-.29-2.52-.87-3.57s-1.75-1.81-3.5-2.28v-.06h12.1v.06c-1.77,.47-2.94,1.23-3.52,2.28s-.87,2.24-.87,3.57v15.75h18.38v-15.75c0-1.33-.3-2.52-.89-3.57s-1.76-1.81-3.5-2.28v-.06h12.11v.06c-1.76,.47-2.92,1.23-3.5,2.28Z"/>
    </g>
  </g>
</svg>